HIERARCHY
ROOT hip
{
	OFFSET 0.000000 0.000000 0.000000 
	CHANNELS 6 Xposition Yposition Zposition Xrotation Zrotation Yrotation
	JOINT abdomen
	{
		OFFSET 0.000000 3.402643 0.000000 
		CHANNELS 3 Xrotation Zrotation Yrotation
		JOINT chest
		{
			OFFSET 0.000000 8.438565 -0.680529 
			CHANNELS 3 Xrotation Zrotation Yrotation
			JOINT neck
			{
				OFFSET 0.000000 10.207942 -0.272212 
				CHANNELS 3 Xrotation Zrotation Yrotation
				JOINT head
				{
					OFFSET 0.000000 3.130431 0.000000 
					CHANNELS 3 Xrotation Zrotation Yrotation
					End Site
					{
						OFFSET 0.000000 3.130435 0.000000 
					}
				}
			}
			JOINT lCollar
			{
				OFFSET 3.470700 6.669187 -0.816635 
				CHANNELS 3 Yrotation Zrotation Xrotation
				JOINT lShldr
				{
					OFFSET 3.198488 0.000000 0.000000 
					CHANNELS 3 Zrotation Yrotation Xrotation
					JOINT lForeArm
					{
						OFFSET 10.139888 0.000000 0.000000 
						CHANNELS 3 Yrotation Zrotation Xrotation
						JOINT lHand
						{
							OFFSET 8.370511 0.000000 0.000000 
							CHANNELS 3 Zrotation Yrotation Xrotation
							End Site
							{
								OFFSET 4.083176 0.000000 0.000000 
							}
						}
					}
				}
			}
			JOINT rCollar
			{
				OFFSET -3.470700 6.669187 -0.816635 
				CHANNELS 3 Yrotation Zrotation Xrotation
				JOINT rShldr
				{
					OFFSET -3.198488 0.000000 0.000000 
					CHANNELS 3 Zrotation Yrotation Xrotation
					JOINT rForeArm
					{
						OFFSET -10.139888 0.000000 0.000000 
						CHANNELS 3 Yrotation Zrotation Xrotation
						JOINT rHand
						{
							OFFSET -8.370511 0.000000 0.000000 
							CHANNELS 3 Zrotation Yrotation Xrotation
							End Site
							{
								OFFSET -4.083176 0.000000 0.000000 
							}
						}
					}
				}
			}
		}
	}
	JOINT lThigh
	{
		OFFSET 5.308129 -1.633274 1.361059 
		CHANNELS 3 Xrotation Zrotation Yrotation
		JOINT lShin
		{
			OFFSET -2.041588 -20.007561 0.000000 
			CHANNELS 3 Xrotation Zrotation Yrotation
			JOINT lFoot
			{
				OFFSET 0.000000 -19.190928 -1.224953 
				CHANNELS 3 Xrotation Yrotation Zrotation
				End Site
				{
					OFFSET 0.000000 -2.449906 4.627600 
				}
			}
		}
	}
	JOINT rThigh
	{
		OFFSET -5.308129 -1.633274 1.361059 
		CHANNELS 3 Xrotation Zrotation Yrotation
		JOINT rShin
		{
			OFFSET 2.041588 -20.007561 0.000000 
			CHANNELS 3 Xrotation Zrotation Yrotation
			JOINT rFoot
			{
				OFFSET 0.000000 -19.190928 -1.224953 
				CHANNELS 3 Xrotation Yrotation Zrotation
				End Site
				{
					OFFSET 0.000000 -2.449906 4.627600 
				}
			}
		}
	}
}
MOTION
Frames: 20
Frame Time: 0.033333
13.273796 46.439911 -6.522444 -1.835937 -2.675781 -36.026062 10.370376 -8.712459 -6.345483 17.792969 1.162109 8.349807 -8.567213 0.778862 2.341579 30.996096 -8.076172 2.518159 2.000000 -2.000000 0.000000 -55.498051 -24.667971 -13.173828 -106.001221 -0.934831 3.913836 6.200147 -19.490583 12.058686 -2.000000 2.000000 0.000000 70.029297 63.076176 28.320313 81.811310 0.697700 3.468769 3.901414 13.828645 1.502635 -22.324471 18.564716 6.831429 28.512295 -3.556695 -7.007278 0.372387 0.370615 -8.903629 15.481906 -19.410561 -24.146296 22.403603 3.566813 -10.979902 -12.018325 -2.176216 15.649205 
13.666426 46.624905 -5.920788 -3.437500 -3.896484 -40.694019 10.370376 -8.712459 -6.345483 21.894529 2.617188 8.779296 -8.351010 1.567030 3.832562 32.949223 -5.761718 4.041989 2.000000 -2.000000 0.000000 -57.412113 -13.134766 -18.642578 -108.441582 -0.961109 3.964344 7.094480 -20.706144 9.666004 -2.000000 2.000000 0.000000 65.761719 50.585934 26.191406 87.853699 0.739340 3.588669 -0.103547 14.650751 -5.485510 -22.790731 19.128687 5.408998 34.438572 -3.307965 -6.183916 5.441061 0.181467 -10.116451 14.586776 -21.024269 -24.922958 21.159477 3.637387 -6.607576 -9.682784 -1.904311 22.679358 
14.389896 45.944851 -5.287547 -4.208984 -3.222656 -45.762268 10.370376 -8.712459 -6.345483 24.208988 4.228516 9.160876 -8.175570 2.789852 6.246648 34.804691 0.371094 6.689509 2.000000 -2.000000 0.000000 -59.658207 2.871094 -25.712887 -111.097382 -0.998913 3.986210 9.397824 -20.835642 6.300869 -2.000000 2.000000 0.000000 62.236328 40.683594 23.268085 90.938576 0.765623 3.639168 -2.807774 15.459864 -5.141262 -26.412039 19.381741 2.487575 41.395634 -3.007738 -10.012794 7.895172 -1.701620 -11.396475 11.897616 -25.384743 -25.584263 24.078363 3.539371 -5.186589 -12.224157 -2.551763 23.400122 
14.914158 45.133789 -4.141620 -4.287109 -3.134766 -56.337891 10.370376 -8.712459 -6.345483 25.898439 4.472656 9.356231 -7.925940 4.148315 9.186373 35.341801 5.546875 9.922820 2.000000 -2.000000 0.000000 -63.173828 26.640625 -35.630386 -114.260170 -1.044091 4.047651 9.227373 -20.729654 9.252980 -2.000000 2.000000 0.000000 58.271484 36.826176 24.712889 95.409332 0.809032 3.729968 -3.967285 15.535096 -4.137865 -23.338409 21.590328 4.240824 41.118790 -3.000597 -7.483558 -1.187021 -0.998074 -13.139658 8.170851 -30.700603 -25.079655 23.771122 3.627065 5.594774 -14.797630 -2.444943 22.421236 
15.081276 44.598206 -3.507748 -1.132813 -5.566407 -71.933601 10.370376 -8.712459 -6.345483 29.296881 3.349610 9.551353 -7.294869 6.408477 14.263799 34.501953 10.458985 15.361328 2.000000 -2.000000 0.000000 -69.062500 46.816406 -47.412109 -106.899483 -0.904995 3.921800 10.769986 -21.428497 25.493885 -2.000000 2.000000 0.000000 58.906250 43.154297 29.541016 95.223785 0.809032 3.729968 -1.608846 15.422356 -2.929483 -14.706630 29.509180 11.900919 38.438309 -3.103745 -3.731594 -8.336604 0.768447 -18.087368 -1.563416 -30.044544 -13.864837 25.586124 3.648664 11.789597 -14.041237 -0.797222 21.427809 
16.265839 43.638271 -2.622695 1.748047 -3.037110 -78.936066 10.370376 -8.712459 -6.345483 29.316408 5.478516 9.873979 -7.136146 7.185015 15.734500 30.888674 11.953125 16.798901 2.000000 -2.000000 0.000000 -43.164063 42.548832 -34.257813 -85.120583 -0.723394 3.529137 6.709486 -18.237713 9.302444 -2.000000 2.000000 0.000000 54.638672 42.412106 29.039789 98.699089 0.834720 3.790218 -4.266086 15.954055 -3.529620 -18.085083 31.637543 10.993184 44.403889 -2.792709 -1.712495 -16.131586 1.771838 -19.276731 -12.371126 -29.328903 -6.411255 28.938890 3.555054 13.073298 -13.368649 -0.443889 22.419321 
17.246532 43.144466 -2.298900 3.291016 -2.626953 -79.863731 10.370376 -8.712459 -6.345483 30.966797 6.699219 10.274577 -6.915494 7.789671 16.914177 28.642580 17.958984 17.717857 2.000000 -2.000000 0.000000 -12.060548 19.218752 -30.224607 -73.093788 -0.648080 3.319155 8.735916 -21.485626 22.922516 -2.000000 2.000000 0.000000 53.857418 40.273438 21.914063 98.142860 0.835905 3.770726 -2.488774 14.317841 0.025603 -23.064278 32.486004 8.885641 49.170906 -2.510140 2.790666 -16.458704 0.858251 -19.613071 -16.618910 -27.154491 -1.856557 31.925913 3.344139 6.528782 -12.255031 -0.132806 24.047571 
17.763119 42.781158 -2.102334 3.574219 -3.164063 -75.479057 10.370376 -8.712459 -6.345483 31.455080 7.656250 10.489581 -6.947908 7.685524 16.602566 25.283205 21.259766 16.751589 2.000000 -2.000000 0.000000 13.212892 -13.994140 -42.697670 -61.477139 -0.640984 3.113209 12.971072 -15.319824 24.060566 -2.000000 2.000000 0.000000 55.156250 30.888674 15.825326 99.704735 0.843875 3.800555 -4.145782 15.573591 -2.087400 -27.339876 31.723394 4.949234 51.320984 -2.403758 -0.495663 -17.134672 0.622942 -18.065266 -15.074246 -27.677881 -2.958741 33.196056 3.280671 3.807150 -13.180306 0.156661 25.424555 
18.140142 42.677715 -1.915582 2.744141 -2.021484 -71.015968 10.370376 -8.712459 -6.345483 29.599611 7.080079 10.157454 -7.267235 6.758935 14.567737 21.718750 17.304688 14.326173 2.000000 -2.000000 0.000000 26.445313 -40.400391 -58.209454 -54.175198 -0.677895 2.988289 14.888921 -13.761301 17.341743 -2.000000 2.000000 0.000000 56.621094 26.132813 12.187497 98.074509 0.826158 3.770134 -3.046317 15.781648 -4.392959 -31.086311 28.577076 2.192402 51.711113 -2.357028 -1.083239 -16.539017 0.348793 -16.981146 -13.535079 -30.291359 -6.879419 32.928883 3.271348 3.872564 -13.361819 0.103693 26.084646 
17.919037 43.095387 -1.539437 3.349610 -1.113281 -72.685730 10.370376 -8.712459 -6.345483 27.324221 5.136719 9.600483 -7.256504 6.994844 15.375123 21.093752 13.339845 15.490536 2.000000 -2.000000 0.000000 20.996094 -48.750000 -51.728516 -59.632271 -0.662840 3.075407 7.952592 -14.499093 16.890776 -2.000000 2.000000 0.000000 55.615234 24.169924 12.806734 99.206894 0.844468 3.790809 -4.466482 16.500233 -0.545417 -29.877737 29.066874 4.021418 50.384777 -2.462128 -0.609668 -16.589525 0.569132 -16.808180 -12.322908 -30.199160 -9.677953 28.367270 3.471839 6.588769 -10.880685 -0.159530 25.418661 
17.498846 43.663822 -1.782818 5.400391 -0.068359 -77.500015 10.370376 -8.712459 -6.345483 23.945316 2.558594 8.955514 -6.914849 8.338387 18.887936 23.525391 10.068359 19.659910 2.000000 -2.000000 0.000000 0.791016 -43.203060 -34.928524 -66.709618 -0.625924 3.200326 10.440550 -18.648355 25.491098 -2.000000 2.000000 0.000000 55.859375 25.341797 15.673829 99.744003 0.844468 3.790809 -4.322665 15.172606 -5.642452 -26.870459 32.756870 8.051921 47.754955 -2.590796 -0.098722 -16.158478 0.916698 -17.596951 -13.631327 -26.596762 -7.581996 24.087059 3.651947 7.011618 -8.446590 0.024029 24.488735 
16.754736 44.281460 -1.681137 4.394531 -0.283203 -75.117249 10.370376 -8.712459 -6.345483 22.744141 1.875000 8.789063 -7.159760 7.698040 17.512800 23.710938 8.271483 18.291018 2.000000 -2.000000 0.000000 -19.843748 -40.781250 -29.918486 -71.815102 -0.679096 3.291695 5.500942 -17.062391 5.569859 -2.000000 2.000000 0.000000 54.384762 23.154297 16.464844 100.681084 0.853031 3.810893 -4.973933 14.613497 -1.092222 -24.657185 30.261986 7.265522 44.150696 -2.772547 1.969034 -14.654493 0.631541 -17.798403 -9.003335 -27.110832 -11.886733 21.126570 3.739591 5.327927 -7.042441 -0.698272 24.157104 
15.962934 44.578697 -1.942387 3.652344 -0.312500 -69.287170 10.370376 -8.712459 -6.345483 20.976566 1.933594 8.642908 -7.410118 7.086590 16.145517 24.101564 9.140626 16.749599 2.000000 -2.000000 0.000000 -36.982422 -39.951172 -29.596119 -76.100510 -0.693864 3.370842 5.928158 -17.138445 7.955211 -2.000000 2.000000 0.000000 52.656246 26.074221 15.341795 99.001823 0.834720 3.790217 -4.180270 14.118392 -3.007687 -25.370850 28.261240 6.531268 42.136856 -2.879436 0.978341 -12.905717 0.757369 -16.561428 -4.776182 -27.202127 -14.953145 21.488743 3.667568 1.140082 -8.379122 -1.396231 24.561844 
14.961976 44.538300 -2.509435 1.806641 -2.382813 -61.142986 10.370376 -8.712459 -6.345483 21.855469 1.933594 8.720704 -7.860997 5.126822 11.721295 23.027344 7.470702 12.032520 2.000000 -2.000000 0.000000 -48.388672 -41.865231 -26.884764 -82.035698 -0.716604 3.479818 5.631193 -17.296156 3.951293 -2.000000 2.000000 0.000000 53.300781 27.871092 14.985034 102.799377 0.879903 3.851651 -5.193024 12.747321 -0.653833 -25.210907 27.016388 6.767931 41.139317 -2.961364 -3.614919 -11.180457 0.657799 -14.458232 2.263296 -26.860287 -17.348215 23.358425 3.597532 -1.753588 -12.497848 -2.508669 25.408106 
13.720411 43.982830 -3.210255 0.742188 -3.994141 -53.506538 10.370376 -8.712459 -6.345483 20.449221 2.265625 8.642965 -8.093370 4.337951 9.929482 25.156250 5.898438 10.293973 2.000000 -2.000000 0.000000 -52.226563 -45.312500 -21.621094 -86.369942 -0.741115 3.559558 3.076150 -19.961281 3.217442 -2.000000 2.000000 0.000000 51.035156 36.054688 12.828014 101.364464 0.862185 3.821230 -7.867276 12.351203 -3.323091 -27.066160 28.100224 7.395676 42.816746 -2.932741 -10.725363 -10.853811 0.402995 -12.503323 5.280381 -25.658382 -16.357300 30.308855 3.345021 -2.736622 -18.116545 -2.877908 25.035452 
12.730404 43.083805 -3.468107 -3.818359 -5.546875 -44.405239 10.370376 -8.712459 -6.345483 21.064459 2.128906 8.662472 -8.249771 3.030527 7.060654 25.400393 2.919922 7.353951 2.000000 -2.000000 0.000000 -52.949219 -52.978516 -16.101545 -87.853897 -0.749679 3.579641 4.613358 -18.452835 11.110832 -2.000000 2.000000 0.000000 46.230469 46.220703 5.739472 96.639587 0.818187 3.740306 -7.084702 10.461848 -6.722511 -27.727142 25.373550 4.577598 45.629749 -2.816069 -14.802676 -11.009679 -0.138786 -11.584300 10.795111 -27.298220 -19.322952 38.495132 2.991895 -0.861550 -24.207218 -2.601807 21.426105 
12.011086 42.104118 -3.909565 -6.787109 -4.765625 -37.236328 10.370376 -8.712459 -6.345483 19.111330 1.728516 8.486623 -8.398079 2.346307 5.661604 24.716799 0.996094 5.927904 2.000000 -2.000000 0.000000 -52.919922 -59.316402 -12.724609 -87.258400 -0.750271 3.569896 2.894981 -19.102278 3.051596 -2.000000 2.000000 0.000000 40.800785 56.191406 -0.900088 92.597687 0.772410 3.688485 -3.387847 9.999586 -6.111310 -30.199207 22.759216 1.523817 47.621944 -2.728842 -18.611465 -10.816465 -0.855030 -11.525659 13.542893 -28.768248 -22.094265 45.368710 2.621425 0.182706 -27.673771 -2.688032 22.366449 
11.107533 41.843624 -5.204868 -7.001953 -4.580078 -34.688641 10.370376 -8.712459 -6.345483 16.943361 1.718750 8.320605 -8.525500 1.968673 4.858595 22.753906 -3.681640 5.498047 2.000000 -2.000000 0.000000 -46.777348 -61.953121 -18.408201 -87.951546 -0.759427 3.580233 0.437495 -19.436132 7.393211 -2.000000 2.000000 0.000000 37.783203 70.556641 -3.398436 87.648834 0.730184 3.578332 -2.159397 12.189400 -0.092605 -30.888359 24.120871 1.813007 45.361046 -2.893559 -21.800928 -8.456665 -0.581682 -12.457113 12.420563 -27.059273 -21.063717 48.960350 2.445623 0.452061 -29.075518 -2.878686 24.197168 
10.451262 42.825958 -6.491109 -8.896484 -4.785157 -33.642578 10.370376 -8.712459 -6.345483 17.998051 0.517578 8.330154 -8.421472 2.465285 6.058443 23.154297 -5.351562 6.903388 2.000000 -2.000000 0.000000 -41.962891 -61.455078 -24.119902 -89.035126 -0.748495 3.599132 3.404715 -19.940983 15.002652 -2.000000 2.000000 0.000000 49.169926 86.376953 7.665996 75.036713 0.666394 3.339716 2.028695 12.761858 5.549232 -24.557013 23.629171 3.369909 34.931553 -3.383152 -21.562317 -2.809573 -0.430925 -14.878814 15.416282 -24.812063 -22.427404 45.161755 2.640940 -1.618327 -29.065256 -3.389666 23.684235 
9.891890 44.460655 -8.303623 -7.060547 -4.375000 -35.156246 10.370376 -8.712459 -6.345483 16.865234 -0.292969 8.232372 -8.340687 3.459655 8.409303 25.546875 -6.689452 9.365237 2.000000 -2.000000 0.000000 -42.539063 -58.642578 -25.195314 -91.133888 -0.765623 3.639298 1.652543 -20.480919 14.611093 -2.000000 2.000000 0.000000 22.724613 103.886719 -23.379190 49.538254 0.672863 2.909621 3.097871 10.980685 19.704781 -16.423256 23.930992 7.553195 16.102438 -4.004941 -16.091616 8.377655 0.402863 -17.687063 14.322658 -20.749960 -21.341690 38.285545 2.983064 -1.801684 -26.582439 -3.280560 20.169144 
